<?xml version="1.0" encoding="utf-8"?>
<!-- Generator: Adobe Illustrator 16.0.0, SVG Export Plug-In . SVG Version: 6.00 Build 0)  -->
<!DOCTYPE svg PUBLIC "-//W3C//DTD SVG 1.1//EN" "http://www.w3.org/Graphics/SVG/1.1/DTD/svg11.dtd">
<svg version="1.1" id="Calque_1" xmlns="http://www.w3.org/2000/svg" xmlns:xlink="http://www.w3.org/1999/xlink" x="0px" y="0px"
	 width="841.889px" height="595.281px" viewBox="0 0 841.889 595.281" enable-background="new 0 0 841.889 595.281"
	 xml:space="preserve">
<path fill="#828282" stroke="#933737" stroke-width="1.0001" stroke-miterlimit="10" d="M234.993,498.507
	c0,9.624-7.802,17.423-17.426,17.423c-9.623,0-17.426-7.799-17.426-17.423c0-9.628,7.803-17.429,17.426-17.429
	C227.192,481.078,234.993,488.879,234.993,498.507z"/>
<path fill="#828282" stroke="#933737" stroke-width="1.0001" stroke-miterlimit="10" d="M199.695,78.904
	c241.82,0,437.5,195.667,437.5,437.473h-19.709c0-230.912-186.865-417.764-417.791-417.764V78.904z"/>
<path fill="#828282" stroke="#933737" stroke-width="1.0001" stroke-miterlimit="10" d="M199.695,284.187
	c128.348,0,232.203,103.85,232.203,232.187l-18.783-0.444c0-117.956-95.457-213.405-213.42-213.405V284.187z"/>
</svg>
